<svg width="320" height="320" viewBox="0 0 320 320" fill="none" xmlns="http://www.w3.org/2000/svg">
<g clip-path="url(#clip0_46_2)">
<path d="M320 0H0V320H320V0Z" fill="#E1D7D5"/>
<path d="M230 210H90V220H230V210Z" fill="black"/>
<path d="M230 220H90V230H230V220Z" fill="black"/>
<path d="M230 230H90V240H230V230Z" fill="black"/>
<path d="M230 240H90V250H230V240Z" fill="black"/>
<path d="M110 250H90V260H110V250Z" fill="black"/>
<path d="M230 250H120V260H230V250Z" fill="black"/>
<path d="M110 260H90V270H110V260Z" fill="black"/>
<path d="M230 260H120V270H230V260Z" fill="black"/>
<path d="M110 270H90V280H110V270Z" fill="black"/>
<path d="M230 270H120V280H230V270Z" fill="black"/>
<path d="M110 280H90V290H110V280Z" fill="black"/>
<path d="M230 280H120V290H230V280Z" fill="black"/>
<path d="M110 290H90V300H110V290Z" fill="black"/>
<path d="M230 290H120V300H230V290Z" fill="black"/>
<path d="M110 300H90V310H110V300Z" fill="black"/>
<path d="M230 300H120V310H230V300Z" fill="black"/>
<path d="M110 310H90V320H110V310Z" fill="black"/>
<path d="M230 310H120V320H230V310Z" fill="black"/>
<path d="M140 210H120V220H140V210Z" fill="black"/>
<path d="M200 210H180V220H200V210Z" fill="black"/>
<path d="M140 220H120V230H140V220Z" fill="black"/>
<path d="M200 220H180V230H200V220Z" fill="black"/>
<path d="M110 240H90V250H110V240Z" fill="black"/>
<path d="M170 240H150V250H170V240Z" fill="black"/>
<path d="M230 240H210V250H230V240Z" fill="black"/>
<path d="M110 250H90V260H110V250Z" fill="black"/>
<path d="M170 250H150V260H170V250Z" fill="black"/>
<path d="M230 250H210V260H230V250Z" fill="black"/>
<path d="M140 270H120V280H140V270Z" fill="black"/>
<path d="M200 270H180V280H200V270Z" fill="black"/>
<path d="M140 280H120V290H140V280Z" fill="black"/>
<path d="M200 280H180V290H200V280Z" fill="black"/>
<path d="M110 300H90V310H110V300Z" fill="black"/>
<path d="M170 300H150V310H170V300Z" fill="black"/>
<path d="M230 300H210V310H230V300Z" fill="black"/>
<path d="M110 310H90V320H110V310Z" fill="black"/>
<path d="M170 310H150V320H170V310Z" fill="black"/>
<path d="M230 310H210V320H230V310Z" fill="black"/>
<path d="M140 70H80V80H140V70Z" fill="black"/>
<path d="M210 70H130V80H210V70Z" fill="black"/>
<path d="M260 70H210V80H260V70Z" fill="black"/>
<path d="M80 80H60V90H80V80Z" fill="black"/>
<path d="M130 80H80V90H130V80Z" fill="black"/>
<path d="M210 80H130V90H210V80Z" fill="black"/>
<path d="M240 80H210V90H240V80Z" fill="black"/>
<path d="M270 80H240V90H270V80Z" fill="black"/>
<path d="M70 90H60V100H70V90Z" fill="black"/>
<path d="M80 90H70V100H80V90Z" fill="black"/>
<path d="M130 90H80V100H130V90Z" fill="black"/>
<path d="M210 90H130V100H210V90Z" fill="black"/>
<path d="M240 90H210V100H240V90Z" fill="black"/>
<path d="M260 90H240V100H260V90Z" fill="black"/>
<path d="M280 90H260V100H280V90Z" fill="black"/>
<path d="M70 100H60V110H70V100Z" fill="black"/>
<path d="M80 100H70V110H80V100Z" fill="black"/>
<path d="M130 100H80V110H130V100Z" fill="black"/>
<path d="M210 100H130V110H210V100Z" fill="black"/>
<path d="M240 100H210V110H240V100Z" fill="black"/>
<path d="M260 100H240V110H260V100Z" fill="black"/>
<path d="M280 100H260V110H280V100Z" fill="black"/>
<path d="M130 110H60V120H130V110Z" fill="black"/>
<path d="M210 110H130V120H210V110Z" fill="black"/>
<path d="M260 110H210V120H260V110Z" fill="black"/>
<path d="M270 110H260V120H270V110Z" fill="black"/>
<path d="M280 110H270V120H280V110Z" fill="black"/>
<path d="M60 120H20V130H60V120Z" fill="black"/>
<path d="M130 120H60V130H130V120Z" fill="black"/>
<path d="M210 120H130V130H210V120Z" fill="black"/>
<path d="M260 120H210V130H260V120Z" fill="black"/>
<path d="M270 120H260V130H270V120Z" fill="black"/>
<path d="M280 120H270V130H280V120Z" fill="black"/>
<path d="M60 130H20V140H60V130Z" fill="black"/>
<path d="M130 130H60V140H130V130Z" fill="black"/>
<path d="M210 130H130V140H210V130Z" fill="#FFD067"/>
<path d="M280 130H210V140H280V130Z" fill="black"/>
<path d="M60 140H20V150H60V140Z" fill="black"/>
<path d="M130 140H60V150H130V140Z" fill="black"/>
<path d="M210 140H130V150H210V140Z" fill="black"/>
<path d="M260 140H210V150H260V140Z" fill="black"/>
<path d="M270 140H260V150H270V140Z" fill="black"/>
<path d="M280 140H270V150H280V140Z" fill="black"/>
<path d="M60 150H20V160H60V150Z" fill="black"/>
<path d="M130 150H60V160H130V150Z" fill="black"/>
<path d="M210 150H130V160H210V150Z" fill="black"/>
<path d="M280 150H210V160H280V150Z" fill="black"/>
<path d="M60 160H20V170H60V160Z" fill="black"/>
<path d="M130 160H60V170H130V160Z" fill="black"/>
<path d="M210 160H130V170H210V160Z" fill="black"/>
<path d="M280 160H210V170H280V160Z" fill="black"/>
<path d="M130 170H60V180H130V170Z" fill="black"/>
<path d="M210 170H130V180H210V170Z" fill="black"/>
<path d="M280 170H210V180H280V170Z" fill="black"/>
<path d="M70 180H60V190H70V180Z" fill="black"/>
<path d="M90 180H70V190H90V180Z" fill="black"/>
<path d="M130 180H90V190H130V180Z" fill="black"/>
<path d="M210 180H130V190H210V180Z" fill="black"/>
<path d="M280 180H210V190H280V180Z" fill="black"/>
<path d="M70 190H60V200H70V190Z" fill="black"/>
<path d="M90 190H70V200H90V190Z" fill="black"/>
<path d="M130 190H90V200H130V190Z" fill="black"/>
<path d="M140 190H130V200H140V190Z" fill="black"/>
<path d="M160 190H140V200H160V190Z" fill="black"/>
<path d="M170 190H160V200H170V190Z" fill="black"/>
<path d="M180 190H170V200H180V190Z" fill="black"/>
<path d="M210 190H180V200H210V190Z" fill="black"/>
<path d="M270 190H210V200H270V190Z" fill="black"/>
<path d="M130 200H70V210H130V200Z" fill="black"/>
<path d="M210 200H130V210H210V200Z" fill="black"/>
<path d="M260 200H210V210H260V200Z" fill="black"/>
<path d="M120 210H100V220H120V210Z" fill="black"/>
<path d="M260 210H240V220H260V210Z" fill="black"/>
<path d="M110 220H100V230H110V220Z" fill="black"/>
<path d="M160 110H100V120H160V110Z" fill="#2B83F6"/>
<path d="M230 110H170V120H230V110Z" fill="#2B83F6"/>
<path d="M110 120H100V130H110V120Z" fill="#2B83F6"/>
<path d="M130 120H110V130H130V120Z" fill="white"/>
<path d="M150 120H130V130H150V120Z" fill="black"/>
<path d="M160 120H150V130H160V120Z" fill="#2B83F6"/>
<path d="M180 120H170V130H180V120Z" fill="#2B83F6"/>
<path d="M200 120H180V130H200V120Z" fill="white"/>
<path d="M220 120H200V130H220V120Z" fill="black"/>
<path d="M230 120H220V130H230V120Z" fill="#2B83F6"/>
<path d="M110 130H70V140H110V130Z" fill="#2B83F6"/>
<path d="M130 130H110V140H130V130Z" fill="white"/>
<path d="M150 130H130V140H150V130Z" fill="black"/>
<path d="M180 130H150V140H180V130Z" fill="#2B83F6"/>
<path d="M200 130H180V140H200V130Z" fill="white"/>
<path d="M220 130H200V140H220V130Z" fill="black"/>
<path d="M230 130H220V140H230V130Z" fill="#2B83F6"/>
<path d="M80 140H70V150H80V140Z" fill="#2B83F6"/>
<path d="M110 140H100V150H110V140Z" fill="#2B83F6"/>
<path d="M130 140H110V150H130V140Z" fill="white"/>
<path d="M150 140H130V150H150V140Z" fill="black"/>
<path d="M160 140H150V150H160V140Z" fill="#2B83F6"/>
<path d="M180 140H170V150H180V140Z" fill="#2B83F6"/>
<path d="M200 140H180V150H200V140Z" fill="white"/>
<path d="M220 140H200V150H220V140Z" fill="black"/>
<path d="M230 140H220V150H230V140Z" fill="#2B83F6"/>
<path d="M80 150H70V160H80V150Z" fill="#2B83F6"/>
<path d="M110 150H100V160H110V150Z" fill="#2B83F6"/>
<path d="M130 150H110V160H130V150Z" fill="white"/>
<path d="M150 150H130V160H150V150Z" fill="black"/>
<path d="M160 150H150V160H160V150Z" fill="#2B83F6"/>
<path d="M180 150H170V160H180V150Z" fill="#2B83F6"/>
<path d="M200 150H180V160H200V150Z" fill="white"/>
<path d="M220 150H200V160H220V150Z" fill="black"/>
<path d="M230 150H220V160H230V150Z" fill="#2B83F6"/>
<path d="M160 160H100V170H160V160Z" fill="#2B83F6"/>
<g filter="url(#filter0_d_46_2)">
<path d="M230 160H170V170H230V160Z" fill="#2B83F6"/>
</g>
</g>
<defs>
<filter id="filter0_d_46_2" x="166" y="160" width="68" height="18" filterUnits="userSpaceOnUse" color-interpolation-filters="sRGB">
<feFlood flood-opacity="0" result="BackgroundImageFix"/>
<feColorMatrix in="SourceAlpha" type="matrix" values="0 0 0 0 0 0 0 0 0 0 0 0 0 0 0 0 0 0 127 0" result="hardAlpha"/>
<feOffset dy="4"/>
<feGaussianBlur stdDeviation="2"/>
<feComposite in2="hardAlpha" operator="out"/>
<feColorMatrix type="matrix" values="0 0 0 0 0 0 0 0 0 0 0 0 0 0 0 0 0 0 0.25 0"/>
<feBlend mode="normal" in2="BackgroundImageFix" result="effect1_dropShadow_46_2"/>
<feBlend mode="normal" in="SourceGraphic" in2="effect1_dropShadow_46_2" result="shape"/>
</filter>
<clipPath id="clip0_46_2">
<rect width="320" height="320" fill="white"/>
</clipPath>
</defs>
</svg>
